<svg width="24" height="24" viewBox="0 0 24 24" fill="none" xmlns="http://www.w3.org/2000/svg">
<path d="M17.7046 4.39382C18.2297 3.86873 19.0811 3.86873 19.6062 4.39382C20.1313 4.91892 20.1313 5.77027 19.6062 6.29537L13.901 11.9994L19.6062 17.7046C20.1313 18.2297 20.1313 19.0811 19.6062 19.6062C19.0811 20.1313 18.2297 20.1313 17.7046 19.6062L11.9994 13.901L6.29537 19.6062C5.80778 20.0938 5.03888 20.1286 4.5111 19.7107L4.39382 19.6062C3.86873 19.0811 3.86873 18.2297 4.39382 17.7046L10.0979 11.9994L4.39382 6.29537C3.86873 5.77027 3.86873 4.91892 4.39382 4.39382C4.91892 3.86873 5.77027 3.86873 6.29537 4.39382L11.9994 10.0979L17.7046 4.39382Z" fill="#3E3C3B"/>
</svg>
