<svg width="50" height="51" viewBox="0 0 50 51" fill="none" xmlns="http://www.w3.org/2000/svg">
<g clip-path="url(#clip0_705_142)">
<g filter="url(#filter0_d_705_142)">
<path d="M39.5833 15.0834V21.3125C39.5833 21.3125 35.4375 21.3334 35.4167 21.3125V15.0834H29.1667C29.1667 15.0834 29.1875 10.9375 29.1667 10.9167H35.4167V4.66669H39.5833V10.9167H45.8333V15.0834H39.5833ZM33.3333 23.4167V17.1667H27.0833V10.9167H10.4167C8.125 10.9167 6.25 12.7917 6.25 15.0834V40.0834C6.25 42.375 8.125 44.25 10.4167 44.25H35.4167C37.7083 44.25 39.5833 42.375 39.5833 40.0834V23.4167H33.3333ZM10.4167 40.0834L16.6667 31.75L20.8333 38L27.0833 29.6667L35.4167 40.0834H10.4167Z" fill="#E6A950"/>
</g>
</g>
<defs>
<filter id="filter0_d_705_142" x="6.25" y="4.66669" width="47.5833" height="47.5833" filterUnits="userSpaceOnUse" color-interpolation-filters="sRGB">
<feFlood flood-opacity="0" result="BackgroundImageFix"/>
<feColorMatrix in="SourceAlpha" type="matrix" values="0 0 0 0 0 0 0 0 0 0 0 0 0 0 0 0 0 0 127 0" result="hardAlpha"/>
<feOffset dx="4" dy="4"/>
<feGaussianBlur stdDeviation="2"/>
<feComposite in2="hardAlpha" operator="out"/>
<feColorMatrix type="matrix" values="0 0 0 0 0.0627451 0 0 0 0 0.117647 0 0 0 0 0.168627 0 0 0 1 0"/>
<feBlend mode="normal" in2="BackgroundImageFix" result="effect1_dropShadow_705_142"/>
<feBlend mode="normal" in="SourceGraphic" in2="effect1_dropShadow_705_142" result="shape"/>
</filter>
<clipPath id="clip0_705_142">
<rect width="50" height="50" fill="white" transform="translate(0 0.5)"/>
</clipPath>
</defs>
</svg>
