<svg width="50" height="51" viewBox="0 0 50 51" fill="none" xmlns="http://www.w3.org/2000/svg">
<g clip-path="url(#clip0_705_85)">
<g filter="url(#filter0_d_705_85)">
<path d="M6.25 8.83331V2.58331H10.4167V8.83331H16.6667V13H10.4167V19.25H6.25V13H0V8.83331H6.25ZM12.5 21.3333V15.0833H18.75V8.83331H33.3333L37.1458 13H43.75C46.0417 13 47.9167 14.875 47.9167 17.1666V42.1666C47.9167 44.4583 46.0417 46.3333 43.75 46.3333H10.4167C8.125 46.3333 6.25 44.4583 6.25 42.1666V21.3333H12.5ZM27.0833 40.0833C32.8333 40.0833 37.5 35.4166 37.5 29.6666C37.5 23.9166 32.8333 19.25 27.0833 19.25C21.3333 19.25 16.6667 23.9166 16.6667 29.6666C16.6667 35.4166 21.3333 40.0833 27.0833 40.0833ZM20.4167 29.6666C20.4167 33.3541 23.3958 36.3333 27.0833 36.3333C30.7708 36.3333 33.75 33.3541 33.75 29.6666C33.75 25.9791 30.7708 23 27.0833 23C23.3958 23 20.4167 25.9791 20.4167 29.6666Z" fill="#E6A950"/>
</g>
</g>
<defs>
<filter id="filter0_d_705_85" x="0" y="2.58331" width="55.9167" height="51.75" filterUnits="userSpaceOnUse" color-interpolation-filters="sRGB">
<feFlood flood-opacity="0" result="BackgroundImageFix"/>
<feColorMatrix in="SourceAlpha" type="matrix" values="0 0 0 0 0 0 0 0 0 0 0 0 0 0 0 0 0 0 127 0" result="hardAlpha"/>
<feOffset dx="4" dy="4"/>
<feGaussianBlur stdDeviation="2"/>
<feComposite in2="hardAlpha" operator="out"/>
<feColorMatrix type="matrix" values="0 0 0 0 0.0627451 0 0 0 0 0.117647 0 0 0 0 0.168627 0 0 0 1 0"/>
<feBlend mode="normal" in2="BackgroundImageFix" result="effect1_dropShadow_705_85"/>
<feBlend mode="normal" in="SourceGraphic" in2="effect1_dropShadow_705_85" result="shape"/>
</filter>
<clipPath id="clip0_705_85">
<rect width="50" height="50" fill="white" transform="translate(0 0.5)"/>
</clipPath>
</defs>
</svg>
