<svg width="24" height="25" viewBox="0 0 24 25" fill="none" xmlns="http://www.w3.org/2000/svg">
<path d="M22.2296 16.0788C22.2296 15.6168 21.9082 15.3154 21.4361 15.3154H9.60351C9.39258 15.3154 9.31222 15.2451 9.31222 15.0242V3.29199C9.31222 2.78976 8.99079 2.44824 8.50865 2.44824C8.01646 2.44824 7.69503 2.78976 7.69503 3.29199V16.0387C7.69503 16.5208 8.00641 16.8321 8.4986 16.8321H21.4361C21.9082 16.8321 22.2296 16.5309 22.2296 16.0788ZM2.57227 8.32436C2.57227 8.77637 2.89369 9.07774 3.35575 9.07774H15.2587C15.4696 9.07774 15.5499 9.15805 15.5499 9.369V21.1714C15.5499 21.6737 15.8714 22.0152 16.3535 22.0152C16.8457 22.0152 17.1671 21.6737 17.1671 21.1714V8.36453C17.1671 7.88239 16.8457 7.56096 16.3635 7.56096H3.35575C2.89369 7.56096 2.57227 7.87235 2.57227 8.32436Z" fill="#FFFFFF"/>
<path d="M21.0036 7.8624C21.305 7.8624 21.5662 7.59119 21.5662 7.27981V6.05436C21.5662 3.51307 19.8886 1.83561 17.3474 1.83561H17.1665V0.650343C17.1665 -0.0226487 16.6643 -0.173319 16.1621 0.198334L13.8719 1.87579C13.5003 2.15704 13.4902 2.46843 13.8719 2.75972L16.1621 4.42713C16.6643 4.79878 17.1665 4.63807 17.1665 3.99521V2.89029H17.3374C19.1956 2.89029 20.421 4.15593 20.421 6.05436V7.27981C20.421 7.59119 20.6922 7.8624 21.0036 7.8624ZM3.85742 16.6012C3.55608 16.6012 3.29492 16.8724 3.29492 17.1838V18.4093C3.29492 20.9505 4.97238 22.6281 7.51367 22.6281H7.69447V23.8133C7.69447 24.4863 8.19671 24.6269 8.69894 24.2553L10.9891 22.5879C11.3608 22.3066 11.3708 21.9852 10.9891 21.7039L8.69894 20.0365C8.19671 19.6648 7.69447 19.8255 7.69447 20.4584V21.5733H7.52371C5.66546 21.5733 4.44001 20.3077 4.44001 18.3993V17.1838C4.44001 16.8724 4.1688 16.6012 3.85742 16.6012Z" fill="#FFFFFF"/>
</svg>
