<svg width="24" height="24" viewBox="0 0 24 24" fill="none" xmlns="http://www.w3.org/2000/svg">
<path d="M22.8853 17.8828C22.8853 17.4107 22.5739 17.1195 22.0817 17.1195H7.59738C7.3764 17.1195 7.30608 17.0491 7.30608 16.8281V2.34375C7.30608 1.84152 6.98466 1.5 6.49247 1.5C6.01032 1.5 5.6889 1.84152 5.6889 2.34375V17.8426C5.6889 18.3248 6.00028 18.6362 6.48242 18.6362H22.0817C22.5739 18.6362 22.8853 18.3448 22.8853 17.8828ZM0.857422 7.08482C0.857422 7.56696 1.16881 7.84821 1.65095 7.84821H16.1453C16.3664 7.84821 16.4367 7.92857 16.4367 8.1395V22.6239C16.4367 23.1261 16.7581 23.4676 17.2403 23.4676C17.7324 23.4676 18.0539 23.1261 18.0539 22.6239V7.13504C18.0539 6.6529 17.7425 6.33147 17.2603 6.33147H1.65095C1.16881 6.33147 0.857422 6.62276 0.857422 7.08482Z" fill="#B4641F"/>
</svg>
