<svg width="40" height="40" viewBox="0 0 40 40" fill="none" xmlns="http://www.w3.org/2000/svg">
<rect width="40" height="40" rx="20" fill="#B06CF7"/>
<g clip-path="url(#clip0_2120_11293)">
<path d="M19.6591 11.8032C20.2316 11.8032 20.7037 11.3411 20.7037 10.7585C20.7037 10.1759 20.2316 9.71387 19.6591 9.71387C19.0765 9.71387 18.6144 10.1759 18.6144 10.7585C18.6144 11.3411 19.0765 11.8032 19.6591 11.8032ZM25.957 14.4047C26.5296 14.4047 26.9916 13.9427 26.9916 13.3601C26.9916 12.7775 26.5296 12.3154 25.957 12.3154C25.3744 12.3154 24.9124 12.7775 24.9124 13.3601C24.9124 13.9427 25.3744 14.4047 25.957 14.4047ZM28.5586 20.7027C29.1311 20.7027 29.5932 20.2406 29.5932 19.6581C29.5932 19.0755 29.1311 18.6134 28.5586 18.6134C27.976 18.6134 27.5139 19.0755 27.5139 19.6581C27.5139 20.2406 27.976 20.7027 28.5586 20.7027ZM25.957 27.0007C26.5296 27.0007 26.9916 26.5386 26.9916 25.956C26.9916 25.3734 26.5296 24.9114 25.957 24.9114C25.3744 24.9114 24.9124 25.3734 24.9124 25.956C24.9124 26.5386 25.3744 27.0007 25.957 27.0007ZM19.6591 29.6022C20.2316 29.6022 20.7037 29.1402 20.7037 28.5576C20.7037 27.975 20.2316 27.513 19.6591 27.513C19.0765 27.513 18.6144 27.975 18.6144 28.5576C18.6144 29.1402 19.0765 29.6022 19.6591 29.6022ZM13.3611 27.0007C13.9436 27.0007 14.4057 26.5386 14.4057 25.956C14.4057 25.3734 13.9436 24.9114 13.3611 24.9114C12.7785 24.9114 12.3164 25.3734 12.3164 25.956C12.3164 26.5386 12.7785 27.0007 13.3611 27.0007ZM10.7595 20.7027C11.3421 20.7027 11.8041 20.2406 11.8041 19.6581C11.8041 19.0755 11.3421 18.6134 10.7595 18.6134C10.1769 18.6134 9.71484 19.0755 9.71484 19.6581C9.71484 20.2406 10.1769 20.7027 10.7595 20.7027ZM13.3611 14.4047C13.9436 14.4047 14.4057 13.9427 14.4057 13.3601C14.4057 12.7775 13.9436 12.3154 13.3611 12.3154C12.7785 12.3154 12.3164 12.7775 12.3164 13.3601C12.3164 13.9427 12.7785 14.4047 13.3611 14.4047Z" fill="white"/>
<path d="M19.6599 24.7706C22.4523 24.7706 24.7726 22.4504 24.7726 19.658C24.7726 16.8555 22.4523 14.5352 19.6599 14.5352C16.8574 14.5352 14.5371 16.8555 14.5371 19.658C14.5371 22.4504 16.8574 24.7706 19.6599 24.7706ZM19.6599 23.2439C17.6911 23.2439 16.0639 21.6166 16.0639 19.658C16.0639 17.6992 17.6911 16.0619 19.6599 16.0619C21.6186 16.0619 23.2459 17.6892 23.2459 19.658C23.2459 21.6166 21.6186 23.2439 19.6599 23.2439Z" fill="white"/>
</g>
<defs>
<clipPath id="clip0_2120_11293">
<rect width="19.8783" height="19.8984" fill="white" transform="translate(9.71484 9.71387)"/>
</clipPath>
</defs>
</svg>
