<svg width="25" height="24" viewBox="0 0 25 24" fill="none" xmlns="http://www.w3.org/2000/svg">
<path d="M8.67271 18.7275H15.4557C16.4829 18.7275 17.247 18.0229 17.247 17.0381V6.95275C17.247 5.96799 16.4829 5.25488 15.4557 5.25488H8.67271C7.64551 5.25488 6.89844 5.96799 6.89844 6.95275V17.0381C6.89844 18.0229 7.64551 18.7275 8.67271 18.7275ZM8.79157 17.4456C8.43501 17.4456 8.18033 17.2164 8.18033 16.8852V7.10556C8.18033 6.76599 8.43501 6.52828 8.79157 6.52828H15.3369C15.7104 6.52828 15.9736 6.76599 15.9736 7.10556V16.8852C15.9736 17.2164 15.7104 17.4456 15.3369 17.4456H8.79157Z" fill="#B4641F"/>
<path d="M20.2517 6.63898C20.5064 6.63898 20.7356 6.40977 20.7356 6.1466V5.1109C20.7356 2.9631 19.3094 1.54538 17.1616 1.54538H17.0088V0.543639C17.0088 -0.0251462 16.5843 -0.143997 16.1599 0.170108L14.2328 1.57934C13.9102 1.81704 13.9017 2.0887 14.2328 2.3264L16.1599 3.73563C16.5843 4.04974 17.0088 3.9224 17.0088 3.37908V2.43676H17.1531C18.7322 2.43676 19.7679 3.50642 19.7679 5.11939V6.1466C19.7679 6.40977 19.9885 6.63898 20.2517 6.63898ZM3.88428 17.3525C3.6296 17.3525 3.40039 17.5733 3.40039 17.8364V18.8806C3.40039 21.0284 4.81811 22.4461 6.96592 22.4461H7.11872V23.4478C7.11872 24.0167 7.55168 24.1355 7.97615 23.8214L9.90322 22.4037C10.2258 22.1745 10.2343 21.9028 9.90322 21.6566L7.97615 20.2559C7.55168 19.9418 7.11872 20.0691 7.11872 20.6125V21.5548H6.9744C5.40387 21.5548 4.36818 20.4851 4.36818 18.8721V17.8364C4.36818 17.5733 4.14745 17.3525 3.88428 17.3525Z" fill="#B4641F"/>
</svg>
