<svg width="25" height="24" viewBox="0 0 25 24" fill="none" xmlns="http://www.w3.org/2000/svg">
<path d="M3.78258 22.6368C5.46003 24.3143 7.41874 24.3344 9.06606 22.687C10.2815 21.4717 11.5571 18.6089 12.5013 17.4839L14.6409 19.6335C15.4243 20.427 16.3685 20.427 17.1319 19.6636L18.4276 18.3578C19.1911 17.5844 19.1911 16.6703 18.3975 15.8768L10.5527 8.02189C9.75914 7.22836 8.83503 7.21831 8.0616 7.99175L6.76584 9.29753C6.00244 10.061 5.9924 10.9951 6.78593 11.7886L8.93548 13.9282C7.82052 14.8723 4.9578 16.138 3.7424 17.3534C2.09508 19.0006 2.10512 20.9694 3.78258 22.6368ZM8.16204 10.1915L8.97565 9.39799C9.23682 9.13681 9.51807 9.12679 9.77922 9.38796L17.0415 16.6402C17.2926 16.9013 17.2926 17.1826 17.0214 17.4538L16.238 18.2473C15.9768 18.5286 15.6754 18.5386 15.4143 18.2574L13.0136 15.8467C12.6419 15.475 12.1598 15.5152 11.738 15.927C10.9545 16.7004 9.57834 20.0051 7.98124 21.5922C7.01695 22.5665 5.85177 22.5665 4.84731 21.5721C3.86293 20.5777 3.85289 19.4025 4.82722 18.4382C6.42432 16.8511 9.729 15.475 10.5024 14.6915C10.9042 14.2596 10.9545 13.7775 10.5828 13.4158L8.16204 11.0051C7.90088 10.744 7.90088 10.4527 8.16204 10.1915ZM6.38414 21.3009C7.06717 21.3009 7.61963 20.7384 7.61963 20.0554C7.61963 19.3723 7.06717 18.8199 6.38414 18.8199C5.7011 18.8199 5.1386 19.3723 5.1386 20.0554C5.1386 20.7384 5.7011 21.3009 6.38414 21.3009ZM18.2871 16.8712L23.0583 12.1C24.1732 10.9851 24.1531 9.64913 23.008 8.50403L15.123 0.608939C14.0683 -0.445749 12.2402 -0.0339184 11.8685 1.60336C10.9344 5.66139 10.8942 6.14353 9.35736 8.29309L10.5125 9.44821C12.2703 7.148 12.4009 6.023 13.3652 2.43706C13.4957 1.92479 13.9176 1.7942 14.2592 2.12568L21.7826 9.6391C22.2447 10.1011 22.2447 10.6636 21.8127 11.0956L17.1621 15.7462L18.2871 16.8712ZM16.7 11.1458C17.2323 11.6782 20.1654 10.0509 21.1799 8.77527L18.9701 6.57546C18.7792 8.35336 17.8551 9.6391 16.7301 10.7641C16.5995 10.8946 16.6096 11.0554 16.7 11.1458Z" fill="white"/>
</svg>
