<svg width="24" height="24" viewBox="0 0 24 24" fill="none" xmlns="http://www.w3.org/2000/svg">
<path d="M21.5566 16.0672C21.5566 12.2302 18.9551 9.5784 14.3747 9.5784H7.62472L4.51088 9.71902L4.69169 10.1811L7.17271 8.06166L10.0756 5.22907C10.2263 5.06836 10.3167 4.87751 10.3167 4.61635C10.3167 4.09402 9.96512 3.73242 9.42272 3.73242C9.21177 3.73242 8.95062 3.84292 8.77986 4.01367L2.8736 9.80943C2.67271 10.0003 2.57227 10.2313 2.57227 10.4824C2.57227 10.7235 2.67271 10.9545 2.8736 11.1454L8.77986 16.9411C8.95062 17.122 9.21177 17.2224 9.42272 17.2224C9.96512 17.2224 10.3167 16.8608 10.3167 16.3384C10.3167 16.0773 10.2263 15.8865 10.0756 15.7258L7.17271 12.9032L4.69169 10.7737L4.51088 11.2358L7.62472 11.3764H14.5254C17.9506 11.3764 19.7587 13.2648 19.7587 15.9668C19.7587 18.6789 17.9506 20.6878 14.5254 20.6878H12.2151C11.6627 20.6878 11.3011 21.0896 11.3011 21.5818C11.3011 22.0739 11.6627 22.4758 12.2151 22.4758H14.5354C19.0254 22.4758 21.5566 19.9144 21.5566 16.0672Z" fill="#444444"/>
</svg>
