<svg width="40" height="40" viewBox="0 0 40 40" fill="none" xmlns="http://www.w3.org/2000/svg">
<rect width="40" height="40" rx="20" fill="#B06CF7"/>
<path d="M15.9289 30.8177C19.8362 30.8177 23.0003 27.6436 23.0003 23.7362C23.0003 19.8489 19.8262 16.6748 15.9289 16.6748C12.0315 16.6748 8.85742 19.8489 8.85742 23.7362C8.85742 27.6436 12.0315 30.8177 15.9289 30.8177ZM15.9289 29.2105C12.9054 29.2105 10.4646 26.7696 10.4646 23.7362C10.4646 20.7329 12.9054 18.2819 15.9289 18.2819C18.9422 18.2819 21.3931 20.7228 21.3931 23.7362C21.3931 26.7596 18.9422 29.2105 15.9289 29.2105Z" fill="white"/>
<path d="M23.9448 30.8177C27.832 30.8177 31.0061 27.6436 31.0061 23.7362C31.0061 19.8489 27.832 16.6748 23.9448 16.6748C20.0374 16.6748 16.8633 19.8489 16.8633 23.7362C16.8633 27.6436 20.0374 30.8177 23.9448 30.8177ZM23.9448 29.2105C20.9213 29.2105 18.4704 26.7696 18.4704 23.7362C18.4704 20.7329 20.9213 18.2819 23.9448 18.2819C26.9481 18.2819 29.399 20.7228 29.399 23.7362C29.399 26.7596 26.9682 29.2105 23.9448 29.2105Z" fill="white"/>
<path d="M19.937 23.9173C23.8343 23.9173 26.9984 20.7532 26.9984 16.8458C26.9984 12.9485 23.8343 9.77441 19.937 9.77441C16.0296 9.77441 12.8555 12.9485 12.8555 16.8458C12.8555 20.7532 16.0296 23.9173 19.937 23.9173ZM19.937 22.3101C16.9135 22.3101 14.4626 19.8693 14.4626 16.8458C14.4626 13.8325 16.9135 11.3816 19.937 11.3816C22.9403 11.3816 25.3912 13.8325 25.3912 16.8458C25.3912 19.8693 22.9503 22.3101 19.937 22.3101Z" fill="white"/>
</svg>
