<svg width="25" height="24" viewBox="0 0 25 24" fill="none" xmlns="http://www.w3.org/2000/svg">
<g clip-path="url(#clip0_2137_3804)">
<path d="M12.0595 3.80315C12.6319 3.80315 13.1041 3.3411 13.1041 2.75851C13.1041 2.17592 12.6319 1.71387 12.0595 1.71387C11.4769 1.71387 11.0148 2.17592 11.0148 2.75851C11.0148 3.3411 11.4769 3.80315 12.0595 3.80315ZM18.3574 6.40472C18.93 6.40472 19.392 5.94266 19.392 5.36008C19.392 4.77748 18.93 4.31543 18.3574 4.31543C17.7748 4.31543 17.3128 4.77748 17.3128 5.36008C17.3128 5.94266 17.7748 6.40472 18.3574 6.40472ZM20.959 12.7027C21.5315 12.7027 21.9936 12.2406 21.9936 11.6581C21.9936 11.0755 21.5315 10.6134 20.959 10.6134C20.3764 10.6134 19.9143 11.0755 19.9143 11.6581C19.9143 12.2406 20.3764 12.7027 20.959 12.7027ZM18.3574 19.0007C18.93 19.0007 19.392 18.5386 19.392 17.956C19.392 17.3734 18.93 16.9114 18.3574 16.9114C17.7748 16.9114 17.3128 17.3734 17.3128 17.956C17.3128 18.5386 17.7748 19.0007 18.3574 19.0007ZM12.0595 21.6022C12.6319 21.6022 13.1041 21.1402 13.1041 20.5576C13.1041 19.975 12.6319 19.513 12.0595 19.513C11.4769 19.513 11.0148 19.975 11.0148 20.5576C11.0148 21.1402 11.4769 21.6022 12.0595 21.6022ZM5.76144 19.0007C6.34403 19.0007 6.80609 18.5386 6.80609 17.956C6.80609 17.3734 6.34403 16.9114 5.76144 16.9114C5.17885 16.9114 4.7168 17.3734 4.7168 17.956C4.7168 18.5386 5.17885 19.0007 5.76144 19.0007ZM3.15988 12.7027C3.74247 12.7027 4.20452 12.2406 4.20452 11.6581C4.20452 11.0755 3.74247 10.6134 3.15988 10.6134C2.57729 10.6134 2.11523 11.0755 2.11523 11.6581C2.11523 12.2406 2.57729 12.7027 3.15988 12.7027ZM5.76144 6.40472C6.34403 6.40472 6.80609 5.94266 6.80609 5.36008C6.80609 4.77748 6.34403 4.31543 5.76144 4.31543C5.17885 4.31543 4.7168 4.77748 4.7168 5.36008C4.7168 5.94266 5.17885 6.40472 5.76144 6.40472Z" fill="white"/>
<path d="M12.0603 16.7706C14.8527 16.7706 17.173 14.4504 17.173 11.658C17.173 8.85547 14.8527 6.53516 12.0603 6.53516C9.25781 6.53516 6.9375 8.85547 6.9375 11.658C6.9375 14.4504 9.25781 16.7706 12.0603 16.7706ZM12.0603 15.2439C10.0915 15.2439 8.46429 13.6166 8.46429 11.658C8.46429 9.69922 10.0915 8.06194 12.0603 8.06194C14.019 8.06194 15.6462 9.68918 15.6462 11.658C15.6462 13.6166 14.019 15.2439 12.0603 15.2439Z" fill="white"/>
</g>
<defs>
<clipPath id="clip0_2137_3804">
<rect width="19.8783" height="19.8984" fill="white" transform="translate(2.11523 1.71387)"/>
</clipPath>
</defs>
</svg>
