<svg width="40" height="40" viewBox="0 0 40 40" fill="none" xmlns="http://www.w3.org/2000/svg">
<rect width="40" height="40" rx="20" fill="#B06CF7"/>
<path d="M10.9818 30.6368C12.6592 32.3143 14.618 32.3344 16.2653 30.687C17.4807 29.4717 18.7563 26.6089 19.7006 25.4839L21.8401 27.6335C22.6235 28.427 23.5677 28.427 24.3311 27.6636L25.6268 26.3578C26.3903 25.5844 26.3903 24.6703 25.5968 23.8768L17.7519 16.0219C16.9584 15.2284 16.0342 15.2183 15.2608 15.9917L13.9651 17.2975C13.2017 18.061 13.1916 18.9951 13.9851 19.7886L16.1347 21.9282C15.0197 22.8723 12.157 24.138 10.9416 25.3534C9.29429 27.0006 9.30434 28.9694 10.9818 30.6368ZM15.3613 18.1915L16.1749 17.398C16.436 17.1368 16.7173 17.1268 16.9784 17.388L24.2408 24.6402C24.4918 24.9013 24.4918 25.1826 24.2206 25.4538L23.4372 26.2473C23.176 26.5286 22.8746 26.5386 22.6135 26.2574L20.2128 23.8467C19.8411 23.475 19.359 23.5152 18.9372 23.927C18.1537 24.7004 16.7776 28.0051 15.1805 29.5922C14.2162 30.5665 13.051 30.5665 12.0465 29.5721C11.0622 28.5777 11.0521 27.4025 12.0264 26.4382C13.6235 24.8511 16.9282 23.475 17.7017 22.6915C18.1034 22.2596 18.1537 21.7775 17.782 21.4158L15.3613 19.0051C15.1001 18.744 15.1001 18.4527 15.3613 18.1915ZM13.5834 29.3009C14.2664 29.3009 14.8188 28.7384 14.8188 28.0554C14.8188 27.3723 14.2664 26.8199 13.5834 26.8199C12.9003 26.8199 12.3378 27.3723 12.3378 28.0554C12.3378 28.7384 12.9003 29.3009 13.5834 29.3009ZM25.4863 24.8712L30.2575 20.1C31.3724 18.9851 31.3523 17.6491 30.2072 16.504L22.3222 8.60894C21.2675 7.55425 19.4394 7.96608 19.0677 9.60336C18.1336 13.6614 18.0934 14.1435 16.5566 16.2931L17.7117 17.4482C19.4696 15.148 19.6001 14.023 20.5644 10.4371C20.6949 9.92479 21.1168 9.7942 21.4584 10.1257L28.9818 17.6391C29.4439 18.1011 29.4439 18.6636 29.012 19.0956L24.3613 23.7462L25.4863 24.8712ZM23.8992 19.1458C24.4316 19.6782 27.3646 18.0509 28.3791 16.7753L26.1693 14.5755C25.9784 16.3534 25.0544 17.6391 23.9294 18.7641C23.7987 18.8946 23.8088 19.0554 23.8992 19.1458Z" fill="white"/>
</svg>
