<svg width="24" height="24" viewBox="0 0 24 24" fill="none" xmlns="http://www.w3.org/2000/svg">
<path d="M2.57227 16.0672C2.57227 19.9144 5.09347 22.4758 9.59348 22.4758H11.9138C12.4663 22.4758 12.8278 22.0739 12.8278 21.5818C12.8278 21.0896 12.4663 20.6878 11.9138 20.6878H9.60351C6.17829 20.6878 4.36021 18.6789 4.36021 15.9668C4.36021 13.2648 6.17829 11.3764 9.60351 11.3764H16.4942L19.618 11.2358L19.4372 10.7737L16.9461 12.9032L14.0533 15.7258C13.8926 15.8865 13.8122 16.0773 13.8122 16.3384C13.8122 16.8608 14.1638 17.2224 14.6961 17.2224C14.9171 17.2224 15.1783 17.122 15.349 16.9411L21.2553 11.1454C21.4562 10.9545 21.5566 10.7235 21.5566 10.4824C21.5566 10.2313 21.4562 10.0003 21.2553 9.80943L15.349 4.01367C15.1783 3.84292 14.9171 3.73242 14.6961 3.73242C14.1638 3.73242 13.8122 4.09402 13.8122 4.61635C13.8122 4.87751 13.8926 5.06836 14.0533 5.22907L16.9461 8.06166L19.4372 10.1811L19.618 9.71902L16.4942 9.5784H9.75419C5.16379 9.5784 2.57227 12.2302 2.57227 16.0672Z" fill="#444444"/>
</svg>
