<svg width="26" height="26" viewBox="0 0 26 26" fill="none" xmlns="http://www.w3.org/2000/svg">
<path d="M13 25.9872C20.1118 25.9872 26 20.0892 26 12.9936C26 5.88534 20.0991 0 12.9873 0C5.88824 0 0 5.88534 0 12.9936C0 20.0892 5.90099 25.9872 13 25.9872Z" fill="#0E0F11" fill-opacity="0.6"/>
<path d="M8.71697 18.3441C8.13069 18.3441 7.67188 17.8727 7.67188 17.2867C7.67188 17.0065 7.77384 16.739 7.97776 16.548L11.5081 13.0065L7.97776 9.47786C7.77384 9.27404 7.67188 9.01926 7.67188 8.739C7.67188 8.14028 8.13069 7.69442 8.71697 7.69442C9.01011 7.69442 9.23952 7.79634 9.44344 7.98742L12.9993 11.5288L16.5807 7.97468C16.7974 7.75812 17.0267 7.66895 17.3072 7.66895C17.8934 7.66895 18.365 8.12754 18.365 8.71352C18.365 9.00653 18.2758 9.23582 18.0465 9.46512L14.5032 13.0065L18.0336 16.5351C18.2503 16.7262 18.3523 16.9938 18.3523 17.2867C18.3523 17.8727 17.8807 18.3441 17.2817 18.3441C16.9886 18.3441 16.7209 18.2421 16.5297 18.0384L12.9993 14.4969L9.48168 18.0384C9.27776 18.2421 9.01011 18.3441 8.71697 18.3441Z" fill="white"/>
</svg>
