<svg width="25" height="24" viewBox="0 0 25 24" fill="none" xmlns="http://www.w3.org/2000/svg">
<path d="M1.76682 20.0487C3.63512 22.5699 7.55253 23.2528 9.98333 21.4449C12.0625 19.908 12.5046 17.4873 10.9677 15.4583C9.53133 13.5297 7.40186 13.0576 5.73445 14.3131C4.16749 15.4883 4.71994 17.1759 3.84606 17.8288C3.08266 18.4013 2.36949 18.0799 1.81704 18.5018C1.41525 18.8232 1.28467 19.4058 1.76682 20.0487ZM3.81592 19.888C3.68535 19.7473 3.69539 19.6067 3.78579 19.5163C3.92642 19.3857 4.48892 19.3455 4.92083 18.9136C5.89516 17.9493 5.56369 16.533 6.68869 15.6592C7.62285 14.9159 8.91861 15.1871 9.79249 16.3121C10.7768 17.5877 10.4353 19.1447 9.07932 20.1893C7.56257 21.3845 5.22218 21.3745 3.81592 19.888ZM11.5905 17.658C12.6753 17.5375 13.5894 16.9951 14.6139 15.9705C17.8382 12.7562 22.7601 5.55422 23.192 4.95154C24.4577 3.19373 22.288 1.04418 20.5201 2.27967C19.9275 2.70154 12.7155 7.61337 9.50119 10.8578C8.49673 11.8723 7.94427 12.7763 7.81369 13.8411L9.3907 14.273C9.41079 13.5397 9.80253 12.8266 10.6363 12.0029C13.8204 8.85891 20.8617 4.02744 21.2936 3.70601C21.6351 3.45489 22.0168 3.8165 21.7556 4.18815C21.4945 4.56985 16.6027 11.7016 13.4689 14.8355C12.6451 15.6592 12.0123 15.9906 11.3192 16.0709L11.5905 17.658ZM13.3684 15.1368L14.6541 14.8054C14.5135 12.8868 12.6351 10.9783 10.7467 10.8176L10.3148 12.1033C11.6005 12.0732 13.3684 13.8411 13.3684 15.1368Z" fill="#B4641F"/>
</svg>
