<svg width="25" height="24" viewBox="0 0 25 24" fill="none" xmlns="http://www.w3.org/2000/svg">
<path d="M2.31752 22.7775H10.303C11.4984 22.7775 12.0408 22.2451 12.0408 21.0498V9.04646C12.0408 8.16253 11.3778 7.69043 10.6646 7.69043C10.1825 7.69043 9.72038 7.91141 9.38892 8.37346L1.11217 20.3869C0.891183 20.7083 0.800781 21.08 0.800781 21.4215C0.800781 22.1548 1.28292 22.7775 2.31752 22.7775ZM2.95033 21.1402C2.89007 21.1402 2.8298 21.1101 2.8298 21.0398C2.8298 21.0096 2.83985 20.9795 2.85993 20.9293L10.2227 9.8902C10.2528 9.85003 10.2829 9.82994 10.3131 9.82994C10.3632 9.82994 10.3934 9.88016 10.3934 9.93038V20.8489C10.3934 21.08 10.3231 21.1402 10.092 21.1402H2.95033ZM14.9436 22.7775H22.9191C23.9637 22.7775 24.4458 22.1548 24.4458 21.4215C24.4458 21.08 24.3455 20.7083 24.1244 20.3869L15.8477 8.37346C15.5262 7.91141 15.0541 7.69043 14.572 7.69043C13.8588 7.69043 13.206 8.16253 13.206 9.04646V21.0498C13.206 22.2451 13.7484 22.7775 14.9436 22.7775ZM15.1546 21.1402C14.9135 21.1402 14.8532 21.08 14.8532 20.8489V9.94043C14.8532 9.88016 14.8834 9.82994 14.9236 9.82994C14.9537 9.82994 14.9939 9.85003 15.024 9.90025L22.3767 20.9293C22.4068 20.9795 22.4169 21.0096 22.4169 21.0398C22.4169 21.1101 22.3566 21.1402 22.2863 21.1402H15.1546Z" fill="#B4641F"/>
<path d="M2.35702 5.17881L5.04898 7.1777C5.60143 7.59957 6.26438 7.34846 6.26438 6.65537V5.21899H18.9708V6.65537C18.9708 7.34846 19.6439 7.59957 20.1963 7.1777L22.8882 5.17881C23.2599 4.89756 23.2499 4.38529 22.8882 4.11408L20.1963 2.10515C19.6639 1.70336 18.9708 1.9143 18.9708 2.63751V4.05381H6.26438V2.63751C6.26438 1.93439 5.60143 1.68327 5.04898 2.10515L2.35702 4.11408C1.98536 4.38529 1.99541 4.9076 2.35702 5.17881Z" fill="#B4641F"/>
</svg>
