<svg width="24" height="24" viewBox="0 0 24 24" fill="none" xmlns="http://www.w3.org/2000/svg">
<path d="M7.92885 22.8177C11.8362 22.8177 15.0003 19.6436 15.0003 15.7362C15.0003 11.8489 11.8262 8.6748 7.92885 8.6748C4.03152 8.6748 0.857422 11.8489 0.857422 15.7362C0.857422 19.6436 4.03152 22.8177 7.92885 22.8177ZM7.92885 21.2105C4.90542 21.2105 2.46456 18.7696 2.46456 15.7362C2.46456 12.7329 4.90542 10.2819 7.92885 10.2819C10.9422 10.2819 13.3931 12.7228 13.3931 15.7362C13.3931 18.7596 10.9422 21.2105 7.92885 21.2105Z" fill="#FFFFFF"/>
<path d="M15.9448 22.8177C19.832 22.8177 23.0061 19.6436 23.0061 15.7362C23.0061 11.8489 19.832 8.6748 15.9448 8.6748C12.0374 8.6748 8.86328 11.8489 8.86328 15.7362C8.86328 19.6436 12.0374 22.8177 15.9448 22.8177ZM15.9448 21.2105C12.9213 21.2105 10.4704 18.7696 10.4704 15.7362C10.4704 12.7329 12.9213 10.2819 15.9448 10.2819C18.9481 10.2819 21.399 12.7228 21.399 15.7362C21.399 18.7596 18.9682 21.2105 15.9448 21.2105Z" fill="#FFFFFF"/>
<path d="M11.937 15.9173C15.8343 15.9173 18.9984 12.7532 18.9984 8.84584C18.9984 4.94852 15.8343 1.77441 11.937 1.77441C8.02958 1.77441 4.85547 4.94852 4.85547 8.84584C4.85547 12.7532 8.02958 15.9173 11.937 15.9173ZM11.937 14.3101C8.91351 14.3101 6.46261 11.8693 6.46261 8.84584C6.46261 5.83245 8.91351 3.38155 11.937 3.38155C14.9403 3.38155 17.3912 5.83245 17.3912 8.84584C17.3912 11.8693 14.9503 14.3101 11.937 14.3101Z" fill="#FFFFFF"/>
</svg>
