<svg width="25" height="24" viewBox="0 0 25 24" fill="none" xmlns="http://www.w3.org/2000/svg">
<path d="M23.2006 22.1281V14.1526C23.2006 12.9573 22.6582 12.4149 21.4629 12.4149H9.45954C8.57561 12.4149 8.10352 13.0778 8.10352 13.791C8.10352 14.2731 8.3245 14.7352 8.7966 15.0566L20.8 23.3335C21.1214 23.5645 21.493 23.6549 21.8446 23.6549C22.5678 23.6549 23.2006 23.1727 23.2006 22.1281ZM21.5633 21.4952C21.5633 21.5656 21.5231 21.6259 21.4629 21.6259C21.4328 21.6259 21.3926 21.6158 21.3524 21.5857L10.3033 14.233C10.2631 14.2028 10.2531 14.1626 10.2531 14.1426C10.2531 14.0923 10.2932 14.0622 10.3435 14.0622H21.262C21.5031 14.0622 21.5633 14.1225 21.5633 14.3635V21.4952ZM23.2006 9.51203V1.53655C23.2006 0.491909 22.5678 0.00976562 21.8446 0.00976562C21.493 0.00976562 21.1214 0.100168 20.8 0.321149L8.7966 8.60801C8.3245 8.92943 8.10352 9.39143 8.10352 9.87358C8.10352 10.5868 8.57561 11.2497 9.45954 11.2497H21.4629C22.6582 11.2497 23.2006 10.7073 23.2006 9.51203ZM21.5633 9.30109C21.5633 9.53209 21.5031 9.60238 21.262 9.60238H10.3535C10.3033 9.60238 10.2531 9.57229 10.2531 9.52206C10.2531 9.49189 10.2631 9.46181 10.3234 9.43163L21.3524 2.07896C21.3926 2.04882 21.4328 2.03879 21.4629 2.03879C21.5231 2.03879 21.5633 2.09905 21.5633 2.16936V9.30109Z" fill="#B4641F"/>
<path d="M5.59165 22.098L7.59054 19.4061C8.01241 18.8537 7.7613 18.1806 7.07826 18.1806H5.63183V5.48424H7.07826C7.7613 5.48424 8.01241 4.81125 7.59054 4.25879L5.59165 1.56682C5.32045 1.19517 4.80817 1.19517 4.53697 1.56682L2.51799 4.25879C2.1162 4.79115 2.33719 5.48424 3.05035 5.48424H4.46665V18.1806H3.05035C2.35727 18.1806 2.09611 18.8537 2.51799 19.4061L4.53697 22.098C4.80817 22.4597 5.33049 22.4597 5.59165 22.098Z" fill="#B4641F"/>
</svg>
