<svg width="24" height="24" viewBox="0 0 24 24" fill="none" xmlns="http://www.w3.org/2000/svg">
<path d="M11.9023 20.9193C15.9202 20.9193 19.2048 17.6649 19.2048 13.6169C19.2048 9.57896 15.9202 6.31445 11.9023 6.31445C7.87444 6.31445 4.58984 9.57896 4.58984 13.6169C4.58984 17.6549 7.87444 20.9193 11.9023 20.9193ZM11.9023 7.94168C15.0262 7.94168 17.5776 10.493 17.5776 13.6169C17.5776 16.7407 15.0262 19.2821 11.9023 19.2821C8.76844 19.2821 6.21708 16.7407 6.21708 13.6169C6.21708 10.493 8.76844 7.94168 11.9023 7.94168ZM15.5184 18.1471L16.563 17.0723L12.3945 12.9138C12.1133 12.6325 11.6111 12.6325 11.3499 12.9138C11.0485 13.2352 11.0485 13.6771 11.3499 13.9785L15.5184 18.1471Z" fill="#FFFFFF"/>
<path d="M4.19866 22.3155C4.78125 22.3155 5.24331 21.8534 5.24331 21.2708C5.24331 20.6882 4.78125 20.2262 4.19866 20.2262C3.61607 20.2262 3.15402 20.6882 3.15402 21.2708C3.15402 21.8534 3.61607 22.3155 4.19866 22.3155ZM1.04464 14.6514C1.62723 14.6514 2.08929 14.1893 2.08929 13.6067C2.08929 13.0342 1.62723 12.5722 1.04464 12.5722C0.462053 12.5722 0 13.0342 0 13.6067C0 14.1893 0.462053 14.6514 1.04464 14.6514ZM4.19866 7.01744C4.78125 7.01744 5.24331 6.55539 5.24331 5.9728C5.24331 5.3902 4.78125 4.92815 4.19866 4.92815C3.61607 4.92815 3.15402 5.3902 3.15402 5.9728C3.15402 6.55539 3.61607 7.01744 4.19866 7.01744ZM11.9029 3.80315C12.4755 3.80315 12.9375 3.3411 12.9375 2.75851C12.9375 2.17592 12.4755 1.71387 11.9029 1.71387C11.3203 1.71387 10.8583 2.17592 10.8583 2.75851C10.8583 3.3411 11.3203 3.80315 11.9029 3.80315ZM19.5971 7.01744C20.1797 7.01744 20.6417 6.55539 20.6417 5.9728C20.6417 5.3902 20.1797 4.92815 19.5971 4.92815C19.0145 4.92815 18.5524 5.3902 18.5524 5.9728C18.5524 6.55539 19.0145 7.01744 19.5971 7.01744ZM22.7511 14.6514C23.3337 14.6514 23.7957 14.1893 23.7957 13.6067C23.7957 13.0342 23.3337 12.5722 22.7511 12.5722C22.1685 12.5722 21.7065 13.0342 21.7065 13.6067C21.7065 14.1893 22.1685 14.6514 22.7511 14.6514ZM19.5971 22.3155C20.1797 22.3155 20.6417 21.8534 20.6417 21.2708C20.6417 20.6882 20.1797 20.2262 19.5971 20.2262C19.0145 20.2262 18.5524 20.6882 18.5524 21.2708C18.5524 21.8534 19.0145 22.3155 19.5971 22.3155Z" fill="#FFFFFF"/>
</svg>
