<svg width="25" height="24" viewBox="0 0 25 24" fill="none" xmlns="http://www.w3.org/2000/svg">
<path d="M6.30257 17.978H17.9731C19.1127 17.978 19.9379 17.1036 19.9379 15.9149V8.06585C19.9379 6.87718 19.1127 6.0127 17.9731 6.0127H6.30257C5.16302 6.0127 4.34766 6.87718 4.34766 8.06585V15.9149C4.34766 17.1036 5.16302 17.978 6.30257 17.978ZM6.4794 16.5043C6.09627 16.5043 5.83103 16.2097 5.83103 15.7775V8.20337C5.83103 7.79078 6.09627 7.49607 6.4794 7.49607H17.7963C18.1892 7.49607 18.4643 7.79078 18.4643 8.20337V15.7775C18.4643 16.2097 18.1892 16.5043 17.7963 16.5043H6.4794Z" fill="#B4641F"/>
<path d="M23.4145 7.68249C23.6994 7.68249 23.9647 7.42707 23.9647 7.12254V5.91423C23.9647 3.42884 22.3241 1.78829 19.8387 1.78829H19.6618V0.629088C19.6618 -0.0290986 19.1609 -0.16663 18.6696 0.196846L16.4397 1.82758C16.0664 2.10264 16.0566 2.417 16.4397 2.69206L18.6696 4.32279C19.1609 4.68627 19.6618 4.53891 19.6618 3.9102V2.81977H19.8289C21.6462 2.81977 22.8447 4.05755 22.8447 5.92405V7.12254C22.8447 7.42707 23.11 7.68249 23.4145 7.68249ZM0.761122 16.1898C0.466411 16.1898 0.201172 16.4452 0.201172 16.7497V17.9482C0.201172 20.4827 1.89084 22.1921 4.445 22.1921H4.61201V23.3512C4.61201 24.0095 5.11302 24.1469 5.60419 23.7835L7.83417 22.1429C8.20747 21.8777 8.21729 21.5633 7.83417 21.2785L5.60419 19.6576C5.11302 19.2941 4.61201 19.4415 4.61201 20.0702V21.1606H4.45483C2.52938 21.1606 1.32107 19.8148 1.32107 17.9482V16.7497C1.32107 16.4452 1.06566 16.1898 0.761122 16.1898Z" fill="#B4641F"/>
</svg>
