<svg width="40" height="40" viewBox="0 0 40 40" fill="none" xmlns="http://www.w3.org/2000/svg">
<rect width="40" height="40" rx="20" fill="#B06CF7"/>
<path d="M9.16721 28.0487C11.0355 30.5699 14.9529 31.2528 17.3837 29.4449C19.4629 27.908 19.905 25.4873 18.3681 23.4583C16.9317 21.5297 14.8022 21.0576 13.1348 22.3131C11.5679 23.4883 12.1203 25.1759 11.2465 25.8288C10.4831 26.4013 9.76988 26.0799 9.21743 26.5018C8.81564 26.8232 8.68506 27.4058 9.16721 28.0487ZM11.2163 27.888C11.0857 27.7473 11.0958 27.6067 11.1862 27.5163C11.3268 27.3857 11.8893 27.3455 12.3212 26.9136C13.2956 25.9493 12.9641 24.533 14.0891 23.6592C15.0232 22.9159 16.319 23.1871 17.1929 24.3121C18.1772 25.5877 17.8357 27.1447 16.4797 28.1893C14.963 29.3845 12.6226 29.3745 11.2163 27.888ZM18.9909 25.658C20.0757 25.5375 20.9898 24.9951 22.0143 23.9705C25.2386 20.7562 30.1605 13.5542 30.5924 12.9515C31.8581 11.1937 29.6884 9.04418 27.9205 10.2797C27.3279 10.7015 20.1159 15.6134 16.9016 18.8578C15.8971 19.8723 15.3447 20.7763 15.2141 21.8411L16.7911 22.273C16.8112 21.5397 17.2029 20.8266 18.0367 20.0029C21.2208 16.8589 28.2621 12.0274 28.694 11.706C29.0355 11.4549 29.4172 11.8165 29.156 12.1882C28.8948 12.5698 24.0031 19.7016 20.8693 22.8355C20.0455 23.6592 19.4127 23.9906 18.7196 24.0709L18.9909 25.658ZM20.7688 23.1368L22.0545 22.8054C21.9139 20.8868 20.0355 18.9783 18.1471 18.8176L17.7152 20.1033C19.0009 20.0732 20.7688 21.8411 20.7688 23.1368Z" fill="white"/>
</svg>
